<svg width="462" height="217" viewBox="0 0 462 217" fill="none" xmlns="http://www.w3.org/2000/svg">
<g opacity="0.32">
<path d="M102.26 195.129C102.26 195.129 99.789 188.355 96.625 179.554H96.4858V179.163C93.5565 171.017 90.0621 161.224 87.3922 153.478V179.469H76.7453V142.581H83.7614C83.4884 141.703 83.3136 141.037 83.229 140.621C82.7786 138.435 83.3109 137.069 84.0917 135.919H53.1611V215.161H112.235V213.652C105.62 210.496 103.734 199.11 102.26 195.129ZM67.862 179.554H57.2151V142.665H67.862V179.554Z" stroke="#89CCE5" stroke-width="2" stroke-linecap="round" stroke-linejoin="round"/>
<path d="M87.3901 185.847V182.393H76.7542V185.847H87.3901Z" fill="#6D6D6D"/>
<path d="M96.4863 185.926V182.472H97.4964L98.4437 185.926H96.4863Z" fill="#6D6D6D"/>
<path d="M67.8594 185.926V182.472H57.2234V185.926H67.8594Z" fill="#6D6D6D"/>
<path d="M81.8699 205.201C83.9324 205.201 85.6045 203.527 85.6045 201.463C85.6045 199.398 83.9324 197.725 81.8699 197.725C79.8073 197.725 78.1353 199.398 78.1353 201.463C78.1353 203.527 79.8073 205.201 81.8699 205.201Z" stroke="#89CCE5" stroke-width="2" stroke-linecap="round" stroke-linejoin="round"/>
<path d="M104.654 203.698C104.248 204.275 103.688 204.725 103.038 204.997C102.387 205.269 101.673 205.351 100.978 205.233C100.283 205.116 99.6356 204.804 99.1101 204.334C98.5847 203.864 98.2029 203.254 98.009 202.576C97.815 201.898 97.8167 201.179 98.014 200.501C98.2112 199.824 98.5959 199.216 99.1235 198.749C99.6512 198.281 100.3 197.972 100.996 197.858C101.691 197.744 102.405 197.83 103.054 198.105" stroke="#89CCE5" stroke-width="2" stroke-linecap="round" stroke-linejoin="round"/>
<path d="M62.3366 205.283C64.3992 205.283 66.0713 203.609 66.0713 201.545C66.0713 199.48 64.3992 197.807 62.3366 197.807C60.2741 197.807 58.6021 199.48 58.6021 201.545C58.6021 203.609 60.2741 205.283 62.3366 205.283Z" stroke="#89CCE5" stroke-width="2" stroke-linecap="round" stroke-linejoin="round"/>
<path d="M87.3928 153.874V179.483H76.7568V142.586H83.4944" stroke="#89CCE5" stroke-width="2" stroke-linecap="round" stroke-linejoin="round"/>
<path d="M86.6661 151.363H77.7773" stroke="#89CCE5" stroke-width="2" stroke-linecap="round" stroke-linejoin="round"/>
<path d="M86.6661 155.426H77.7773" stroke="#89CCE5" stroke-width="2" stroke-linecap="round" stroke-linejoin="round"/>
<path d="M86.6661 159.489H77.7773" stroke="#89CCE5" stroke-width="2" stroke-linecap="round" stroke-linejoin="round"/>
<path d="M67.8594 179.562V142.668H57.2234V179.562H67.8594Z" stroke="#89CCE5" stroke-width="2" stroke-linecap="round" stroke-linejoin="round"/>
<path d="M67.1416 168.348H57.9907" stroke="#89CCE5" stroke-width="2" stroke-linecap="round" stroke-linejoin="round"/>
<path d="M67.1416 147.382H57.9907" stroke="#89CCE5" stroke-width="2" stroke-linecap="round" stroke-linejoin="round"/>
<path d="M67.1416 172.411H57.9907" stroke="#89CCE5" stroke-width="2" stroke-linecap="round" stroke-linejoin="round"/>
<path d="M67.1416 176.474H57.9907" stroke="#89CCE5" stroke-width="2" stroke-linecap="round" stroke-linejoin="round"/>
<path d="M94.2259 105.509C93.7323 104.118 93.0007 102.823 92.0637 101.683C88.6731 97.5492 88.6322 94.9233 86.7212 92.9422C84.8102 90.9612 81.7772 91.8656 84.5072 98.5848C84.9385 99.645 85.3307 100.608 85.6838 101.473" stroke="#4F5FCD" stroke-width="2" stroke-linecap="round" stroke-linejoin="round"/>
<path d="M80.1694 100.992C82.9485 101.033 92.1813 101.73 97.2536 109.307" stroke="#4F5FCD" stroke-width="2" stroke-linecap="round" stroke-linejoin="round"/>
<path d="M80.3223 106.933C86.1917 105.692 100.852 104.397 103.729 121.415" stroke="#4F5FCD" stroke-width="2" stroke-linecap="round" stroke-linejoin="round"/>
<path d="M89.3747 126.514C88.5749 123.729 87.6303 121.09 86.6011 119.48C83.5817 114.758 76.8387 115.108 76.8387 115.108C76.8387 115.108 59.6945 99.891 57.213 97.1421C54.7314 94.3932 55.6814 91.7728 60.1176 94.8277C62.4081 96.4043 67.0736 99.7461 71.0375 102.618" stroke="#4F5FCD" stroke-width="2" stroke-linecap="round" stroke-linejoin="round"/>
<path d="M76.5468 114.43C76.5468 114.43 67.7426 94.8523 66.4241 91.1634C65.1055 87.4746 66.8881 85.529 69.8829 90.4229C71.1824 92.5488 73.2053 95.8879 75.0699 98.9947" stroke="#4F5FCD" stroke-width="2" stroke-linecap="round" stroke-linejoin="round"/>
<path d="M75.714 112.865C75.714 112.865 75.0124 96.0709 75.0151 92.8165C75.0151 87.4527 78.2338 85.928 79.0637 93.1581C79.6097 97.9864 80.2294 106.886 80.2294 106.886" stroke="#4F5FCD" stroke-width="2" stroke-linecap="round" stroke-linejoin="round"/>
<path d="M329.235 105.818C329.73 104.313 330.5 102.913 331.504 101.689C334.897 97.5519 334.933 94.9233 336.852 92.945C338.771 90.9666 341.793 91.8684 339.063 98.5875C338.603 99.7297 338.184 100.759 337.807 101.675" stroke="#4F5FCD" stroke-width="2" stroke-linecap="round" stroke-linejoin="round"/>
<path d="M343.63 100.989C341.203 100.989 331.793 101.492 326.524 109.004" stroke="#4F5FCD" stroke-width="2" stroke-linecap="round" stroke-linejoin="round"/>
<path d="M343.183 106.919C337.272 105.684 322.708 104.46 319.839 121.401" stroke="#4F5FCD" stroke-width="2" stroke-linecap="round" stroke-linejoin="round"/>
<path d="M334.395 125.814C335.151 123.292 336.033 120.95 336.967 119.475C339.986 114.753 346.729 115.103 346.729 115.103C346.729 115.103 363.868 99.8882 366.355 97.1393C368.842 94.3905 367.886 91.77 363.45 94.8249C361.1 96.4426 356.251 99.9237 352.214 102.837" stroke="#4F5FCD" stroke-width="2" stroke-linecap="round" stroke-linejoin="round"/>
<path d="M347.021 114.43C347.021 114.43 355.826 94.8522 357.144 91.1634C358.463 87.4745 356.68 85.529 353.688 90.4229C352.361 92.587 350.287 96.0163 348.386 99.1668" stroke="#4F5FCD" stroke-width="2" stroke-linecap="round" stroke-linejoin="round"/>
<path d="M348.384 99.2051C348.482 96.3442 348.556 93.8713 348.553 92.8165C348.553 87.4527 345.334 85.9279 344.504 93.1581C343.958 97.9864 343.341 106.886 343.341 106.886" stroke="#4F5FCD" stroke-width="2" stroke-linecap="round" stroke-linejoin="round"/>
<path d="M347.854 112.865C347.854 112.865 348.176 105.186 348.384 99.2023" stroke="#4F5FCD" stroke-width="2" stroke-linecap="round" stroke-linejoin="round"/>
<path d="M174.702 84.6656C161.156 91.4394 156.881 102.061 158.304 113.124H158.172C158.172 113.124 140.357 112.887 130.376 142.564C127.452 135.678 124.485 128.94 123.21 126.831C120.308 122.043 110.401 124.194 107.813 120.868C105.225 117.543 104.307 116.496 104.307 116.496C104.307 116.496 96.6089 125.694 86.9939 124.664C86.9939 124.664 86.4479 126.32 86.8138 130.5C87.1796 134.681 82.0991 135.159 83.232 140.627C84.365 146.095 102.252 195.129 102.252 195.129C103.939 199.687 106.167 213.948 115.41 214.456C115.435 214.522 115.479 214.58 115.536 214.622C115.593 214.664 115.661 214.689 115.732 214.693C130.39 214.653 309.618 214.803 309.618 214.803C309.618 214.803 309.634 214.609 309.653 214.243C317.638 212.357 319.708 199.427 321.299 195.129C321.299 195.129 339.189 146.095 340.319 140.627C341.449 135.159 336.377 134.681 336.74 130.5C337.103 126.32 336.557 124.664 336.557 124.664C326.953 125.68 319.252 116.499 319.252 116.499C319.252 116.499 318.334 117.537 315.749 120.871C313.164 124.205 308.255 120.439 305.356 125.227C303.014 129.096 294.709 149.373 291.605 157.011C282.187 128.973 270.068 114.726 250.298 111.141C249.001 103.277 245.542 94.3495 236.787 87.8626" stroke="#6EC1E4" stroke-opacity="0.8" stroke-width="2" stroke-linecap="round" stroke-linejoin="round"/>
<path d="M336.339 129.888C337.024 125.516 336.669 123.833 336.669 123.833C327.895 125.732 319.787 115.748 319.787 115.748C319.787 115.748 318.867 116.906 316.238 120.59C315.489 121.713 314.338 122.505 313.022 122.803C316.664 134.667 332.522 136.192 338.468 136.334C338.026 133.746 335.82 133.208 336.339 129.888Z" fill="#273171"/>
<path d="M86.7046 129.866C86.0194 125.494 86.8984 123.833 86.8984 123.833C95.6753 125.732 103.783 115.748 103.783 115.748C103.783 115.748 105.105 115.895 107.728 119.573C108.785 121.057 110.6 122.306 111.695 122.609C108.053 134.471 89.814 136.08 83.8682 136.225C84.3159 133.645 87.2233 133.189 86.7046 129.866Z" fill="#273171"/>
<path d="M158.951 112.578C153.616 113.671 147.34 116.103 142.451 121.532C147.002 128.123 163.641 150.912 192.955 155.688C192.932 155.485 192.888 155.284 192.824 155.09C176.573 148.398 160.668 129.844 158.951 112.578Z" fill="#273171"/>
<path d="M249.217 109.548C250.232 115.619 249.954 121.07 249.817 124.289C249.367 134.93 245.466 142.277 242.468 147.573L241.895 151.379C254.275 148.458 264.567 128.7 266.225 117.393C261.829 114.996 259.984 111.728 249.217 109.548Z" fill="#273171"/>
<path d="M192.617 148.037C192.617 148.037 204.383 168.356 205.603 181.191" stroke="#6EC1E4" stroke-opacity="0.8" stroke-width="2" stroke-linecap="round" stroke-linejoin="round"/>
<path d="M240.296 147.532C240.296 147.532 235.327 167.525 236.673 180.349" stroke="#6EC1E4" stroke-opacity="0.8" stroke-width="2" stroke-linecap="round" stroke-linejoin="round"/>
<path d="M130.06 141.488L142.819 171.381" stroke="#6EC1E4" stroke-opacity="0.8" stroke-width="2" stroke-linecap="round" stroke-linejoin="round"/>
<path d="M292.042 156.183L283.347 173.187" stroke="#6EC1E4" stroke-opacity="0.8" stroke-width="2" stroke-linecap="round" stroke-linejoin="round"/>
<path d="M168.235 193.186C168.235 193.186 167.143 215.434 155.524 214.915" stroke="#6EC1E4" stroke-opacity="0.8" stroke-width="2" stroke-linecap="round" stroke-linejoin="round"/>
<path d="M233.228 156.571C239.476 138.061 237.05 114.832 232.829 111.466C231.98 110.791 229.427 110.277 225.889 109.886C224.41 109.725 223.252 110.802 223.252 110.802L228.499 111.622C226.16 134.061 216.154 141.132 216.154 141.132C199.848 122.281 181.615 109.643 181.615 109.643L182.925 108.739L181.997 108.752L173.619 111.641C173.619 111.641 205.518 141.304 214.964 195.432C216.446 203.919 217.448 210.589 218.114 215.822L234.268 214.874C231.846 196.093 229.269 168.321 233.228 156.571Z" fill="#273171"/>
<path d="M188.986 97.6285L188.576 104.84L181.615 109.643C181.615 109.643 199.848 122.281 216.154 141.157C216.154 141.157 226.16 134.077 228.499 111.646L223.252 110.826" stroke="#4F5FCD" stroke-width="2" stroke-linecap="round" stroke-linejoin="round"/>
<path d="M179.931 71.7109C177.111 72.5142 171.31 75.1019 173.652 82.4659C175.68 88.8408 181.34 87.8462 184.908 86.4635" stroke="#6EC1E4" stroke-width="2" stroke-linecap="round" stroke-linejoin="round"/>
<path d="M233.124 45.2168C235.829 56.1795 236.616 68.1696 236.58 77.43L233.124 45.2168Z" fill="white"/>
<path d="M233.124 45.2168C235.829 56.1795 236.616 68.1696 236.58 77.43" stroke="#6EC1E4" stroke-width="2" stroke-linecap="round" stroke-linejoin="round"/>
<path d="M185.746 69.0467C187.733 70.6562 193.706 80.5915 195.432 85.3487C195.432 85.3487 206.78 79.8373 223.681 77.583C223.681 77.583 232.936 76.684 236.744 77.3781C236.744 77.3781 237.926 94.8086 231.47 104.67C225.014 114.532 208.899 113.892 200.859 109.37C192.819 104.848 191.304 102.424 188.923 96.8525C186.543 91.2809 179.541 70.2873 179.541 70.2873L185.746 69.0467Z" stroke="#6EC1E4" stroke-width="2" stroke-linecap="round" stroke-linejoin="round"/>
<path d="M181.356 73.3148C181.356 73.3148 175.391 65.9235 172.505 57.8572C169.775 50.2746 172.434 41.6864 179.136 37.3636C184.743 33.7485 189.406 35.5301 189.406 35.5301C189.406 35.5301 181.877 25.3489 190.25 14.6075C191.702 12.7363 193.524 11.1846 195.602 10.0488C197.68 8.91308 199.969 8.21763 202.327 8.00578C213.91 7.00843 218.595 16.5229 218.595 16.5229C218.595 16.5229 228.36 -8.01203 255.237 2.71297C257.948 3.80596 261.256 7.30354 262.927 9.72998C273.061 24.4471 247.566 46.2414 233.372 49.3838C217.784 52.8322 208.257 51.2473 202.737 47.9137C206.774 49.7827 205.224 74.2794 181.356 73.3148Z" fill="#45ABE5"/>
<path d="M222.27 66.6558L225.698 81.5587L221.29 82.5616" stroke="#6EC1E4" stroke-width="2" stroke-linecap="round" stroke-linejoin="round"/>
<path d="M228.12 72.6374C228.96 72.5433 229.522 71.3947 229.374 70.0719C229.226 68.7491 228.425 67.753 227.585 67.8471C226.744 67.9412 226.182 69.0898 226.33 70.4126C226.478 71.7354 227.279 72.7314 228.12 72.6374Z" fill="#45ABE5"/>
<path d="M213.565 73.6079C214.406 73.5138 214.967 72.3652 214.819 71.0424C214.672 69.7197 213.87 68.7236 213.03 68.8177C212.189 68.9117 211.628 70.0603 211.775 71.3831C211.923 72.7059 212.724 73.702 213.565 73.6079Z" fill="#45ABE5"/>
<path d="M207.899 67.3307C207.899 67.3307 214.126 66.9591 214.047 62.7948" stroke="#6EC1E4" stroke-width="2" stroke-linecap="round" stroke-linejoin="round"/>
<path d="M225.821 56.8352C225.821 56.8352 229.916 55.2203 231.369 58.6032" stroke="#6EC1E4" stroke-width="2" stroke-linecap="round" stroke-linejoin="round"/>
<path d="M220.918 89.207C218.732 89.6074 216.507 89.755 214.287 89.6469C212.922 89.5895 211.888 90.4338 212.292 91.2864C212.999 92.7838 214.688 94.5654 218.702 94.0981C222.655 93.6281 223.444 91.8001 223.435 90.3929C223.43 89.5458 222.155 88.9638 220.918 89.207Z" stroke="#6EC1E4" stroke-width="2" stroke-linecap="round" stroke-linejoin="round"/>
<path d="M257.363 181.018C256.787 181.018 256.223 181.19 255.744 181.51C255.264 181.831 254.89 182.287 254.67 182.82C254.449 183.353 254.391 183.94 254.504 184.506C254.616 185.072 254.894 185.592 255.302 186C255.709 186.408 256.229 186.686 256.795 186.799C257.36 186.912 257.946 186.854 258.479 186.633C259.012 186.412 259.467 186.038 259.788 185.558C260.108 185.078 260.279 184.514 260.279 183.937C260.278 183.163 259.971 182.421 259.424 181.874C258.878 181.327 258.136 181.019 257.363 181.018Z" fill="#6EC1E4"/>
<path d="M247.975 201.548C247.202 201.548 246.46 201.855 245.914 202.402C245.367 202.95 245.06 203.692 245.06 204.466C245.06 205.24 245.367 205.982 245.914 206.529C246.46 207.077 247.202 207.384 247.975 207.384H247.989C248.762 207.382 249.503 207.073 250.048 206.525C250.594 205.976 250.899 205.233 250.898 204.459C250.896 203.685 250.587 202.943 250.039 202.397C249.491 201.851 248.748 201.546 247.975 201.548Z" fill="#6EC1E4"/>
<path d="M322.924 174.753H243.754V194.582L229.226 194.826L229.321 214.655L313.227 214.256L313.131 194.582H322.932L322.924 174.753ZM251.21 207.668C250.792 208.098 250.292 208.44 249.741 208.674C249.189 208.909 248.596 209.031 247.997 209.035H247.975C246.767 209.037 245.608 208.56 244.752 207.707C243.896 206.855 243.413 205.696 243.411 204.488C243.408 203.279 243.885 202.118 244.737 201.262C245.588 200.405 246.745 199.922 247.953 199.919H247.975C248.871 199.922 249.745 200.189 250.49 200.688C251.234 201.186 251.816 201.892 252.161 202.72C252.506 203.547 252.6 204.457 252.431 205.337C252.262 206.218 251.837 207.028 251.21 207.668ZM257.363 188.489C256.463 188.489 255.582 188.222 254.834 187.721C254.085 187.22 253.501 186.508 253.156 185.675C252.812 184.843 252.722 183.926 252.897 183.042C253.073 182.158 253.507 181.346 254.144 180.708C254.78 180.071 255.592 179.637 256.475 179.461C257.358 179.285 258.274 179.375 259.106 179.72C259.938 180.065 260.649 180.65 261.15 181.399C261.65 182.149 261.917 183.03 261.917 183.931C261.917 185.141 261.437 186.3 260.584 187.156C259.73 188.012 258.572 188.493 257.363 188.494V188.489ZM270.06 209.395L270.009 198.739L273.459 198.722L273.508 209.379L270.06 209.395ZM274.333 178.811H277.784V189.467H274.333V178.811ZM275.054 209.371L275.002 198.714L311.856 198.539L311.908 209.196L275.054 209.371ZM316.186 189.456H279.331V178.8H316.186V189.456Z" fill="#6EC1E4"/>
<path d="M303.139 208.023L303.101 200.113" stroke="#6D6D6D" stroke-width="2" stroke-linecap="round" stroke-linejoin="round"/>
<path d="M299.08 208.043L299.042 200.132" stroke="#6D6D6D" stroke-width="2" stroke-linecap="round" stroke-linejoin="round"/>
<path d="M295.021 208.062L294.982 200.151" stroke="#6D6D6D" stroke-width="2" stroke-linecap="round" stroke-linejoin="round"/>
<path d="M290.529 188.123V180.212" stroke="#6D6D6D" stroke-width="2" stroke-linecap="round" stroke-linejoin="round"/>
<path d="M311.477 188.123V180.212" stroke="#6D6D6D" stroke-width="2" stroke-linecap="round" stroke-linejoin="round"/>
<path d="M286.47 188.123V180.212" stroke="#6D6D6D" stroke-width="2" stroke-linecap="round" stroke-linejoin="round"/>
<path d="M282.411 188.123V180.212" stroke="#6D6D6D" stroke-width="2" stroke-linecap="round" stroke-linejoin="round"/>
<path d="M406.004 145.832H307.958V215.051H406.004V145.832Z" fill="#45ABE5"/>
<path d="M362.97 145.991V215.448V145.991Z" fill="#45ABE5"/>
<path d="M362.97 145.991V215.448" stroke="#111111" stroke-width="2" stroke-linecap="round" stroke-linejoin="round"/>
<path d="M349.77 153.5H394.135" stroke="#111111" stroke-width="2" stroke-linecap="round" stroke-linejoin="round"/>
<path d="M376.611 178.368H405.114" stroke="#111111" stroke-width="2" stroke-linecap="round" stroke-linejoin="round"/>
<path d="M345.334 201.569H400.903" stroke="#111111" stroke-width="2" stroke-linecap="round" stroke-linejoin="round"/>
<path d="M353.098 172.151H324.373" stroke="#111111" stroke-width="2" stroke-linecap="round" stroke-linejoin="round"/>
<path d="M308.067 161.271H325.482" stroke="#111111" stroke-width="2" stroke-linecap="round" stroke-linejoin="round"/>
<path d="M307.958 193.243H342.006" stroke="#111111" stroke-width="2" stroke-linecap="round" stroke-linejoin="round"/>
<path d="M307.811 161.38C300.489 164.265 308.032 169.094 308.032 169.094C308.032 169.094 309.918 163.629 319.566 161.402L307.811 161.38Z" fill="#45ABE5" stroke="#111111" stroke-width="2" stroke-linecap="round" stroke-linejoin="round"/>
<path d="M406.291 178.253C413.61 181.139 406.067 185.97 406.067 185.97C406.067 185.97 404.184 180.505 394.533 178.275L406.291 178.253Z" fill="#45ABE5" stroke="#111111" stroke-width="2" stroke-linecap="round" stroke-linejoin="round"/>
<path d="M333.69 193.293C333.69 193.293 316.702 196.501 317.122 206.504C317.122 206.504 303.505 201.504 308.113 193.293H333.69Z" fill="#45ABE5" stroke="#111111" stroke-width="2" stroke-linecap="round" stroke-linejoin="round"/>
<path d="M1 214.967H461" stroke="#111111" stroke-width="2" stroke-linecap="round" stroke-linejoin="round"/>
</g>
</svg>
